<svg version="1.1" width="512" height="512" xmlns="http://www.w3.org/2000/svg" viewBox="0 0 512 512">
    <defs>
        <mask id="Mask">
            <rect height="100%" width="100%" fill="#fff" />
            <g id="spigot-logo">
                <svg version="1.0" xmlns="http://www.w3.org/2000/svg" width="auto" height="50%" viewBox="0 0 881 728" preserveAspectRatio="xMidYMid meet" x="-28%" y="1%">
                <g fill="#333">
                <path d="M670.5 727 c-0.3 -0.5 -3 -1 -5.8 -1 -7.9 0 -12.2 -1.6 -15.7 -5.8 -7.8 -9.4 -21.3 -44.1 -24.6 -63.2 -1.9 -11 -1.5 -22 1 -26.8 2.4 -4.6 10.3 -9.5 23.6 -14.5 l11.5 -4.3 0.3 -7.3 c0.4 -8.9 -1.5 -15.6 -6.3 -23.3 l-3.6 -5.8 -3.3 2.5 c-4.6 3.5 -30 15.5 -44.2 20.8 -24.3 9.2 -53.8 16.7 -79.4 20.1 -35 4.8 -85.1 3.8 -123.8 -2.4 -33.4 -5.4 -51.1 -10.9 -87.2 -27.3 -26.2 -11.9 -26.7 -12 -52.5 -12.5 -12.2 -0.2 -23.6 0 -25.5 0.5 -3.3 0.9 -3.5 1.2 -5.3 8.6 l-1.9 7.7 -39.1 0.2 -39.1 0.3 -4 13.9 -4 13.8 -5.9 -0.6 c-3.3 -0.3 -12.2 -0.6 -19.7 -0.6 l-13.7 0 -1.9 -10.7 -1.9 -10.8 -41 -0.5 -41 -0.5 -3.3 -6.8 c-4.5 -9.1 -8.9 -27.2 -10.3 -41.5 -0.6 -6.5 -1.5 -12.5 -2 -13.4 -1.1 -2.2 -1.2 -40.5 0 -41.2 0.4 -0.3 1.1 -4.8 1.5 -10.1 1.4 -20.4 6.8 -44.7 12.6 -57.2 l2.9 -6.3 39.7 -0.2 39.7 -0.3 1.2 -4.5 c0.7 -2.5 2.1 -7.5 3.1 -11.2 l1.9 -6.8 19.1 0 19.1 0 1.8 4.8 c1 2.6 3.5 8.4 5.6 13 l3.8 8.2 33.8 0 33.7 0 6.2 6.1 6.2 6.1 9.5 -1.1 c14 -1.6 30.1 -1.3 48.7 0.9 33.9 4 44.7 2.1 60.6 -11 3.3 -2.7 8.9 -8.4 12.6 -12.7 l6.8 -7.8 0 -55.7 0 -55.7 2.1 -1.2 c1.2 -0.6 4.2 -1.4 6.8 -1.8 l4.6 -0.6 0.5 -16.7 c0.4 -11.9 0.9 -17.1 1.8 -18 0.9 -0.9 4.6 -1.3 12 -1.3 l10.7 0 0.5 -32.7 c0.4 -24.9 0.8 -33 1.8 -34 0.9 -0.9 5.6 -1.5 14.5 -1.8 l13.2 -0.5 0.3 -59.5 c0.2 -49.3 0 -59.9 -1.2 -61.5 -1.3 -1.8 -2.7 -1.8 -67.2 0.3 -36.3 1.3 -67.5 2.4 -69.6 2.6 l-3.6 0.4 -1.7 -9 c-2 -11.1 -2.1 -29.4 -0.1 -40.7 0.8 -4.5 1.7 -8.6 2 -8.9 0.4 -0.3 31.7 2.1 69.8 5.3 l69.1 5.9 2.1 -2.9 c5.7 -8 14.2 -13.1 23.8 -14.2 2.9 -0.3 5.9 -1 6.6 -1.6 0.8 -0.6 1.6 -0.6 2.5 0 0.6 0.6 3.6 1.3 6.6 1.6 9.6 1.1 17.6 6.2 23.2 14.7 l1.6 2.4 69.2 -6.4 c57.4 -5.3 69.4 -6.1 70.1 -5 2.6 4.1 4.9 26.8 3.9 37.4 -0.6 6.1 -3.4 19.8 -4.2 20.1 -0.1 0 -30.9 -0.8 -68.3 -1.9 -37.5 -1 -68.9 -1.6 -69.8 -1.3 -1.5 0.6 -1.6 6.4 -1.4 61.9 l0.3 61.3 11.5 0.6 c14.6 0.8 14.2 0.8 16 1.9 1.3 0.8 1.6 6 2 33.2 l0.5 32.3 10.7 0.5 c5.8 0.3 11 0.9 11.5 1.3 0.4 0.5 1 8.6 1.3 18 l0.5 17.2 3 0.3 c7.8 0.7 7.5 0.2 7.5 11 l0 9.7 5 7.3 c2.7 4 5.4 8.9 6 11 0.6 2.2 1 15.8 1 33 l0 29.3 18.8 12.3 c37 24.3 55.4 33.3 96.2 47.1 34 11.5 45 17.4 57.1 30.2 12.7 13.5 21.6 29.9 35.3 65.3 l8.3 21.5 18.4 0.6 c27 0.9 40.1 4.9 45.8 13.7 6.9 10.7 15.8 34.2 18.2 47.8 0.7 3.8 1.6 7.3 2.1 7.9 1.1 1.2 1 10.1 -0.1 12.3 -0.5 0.9 -2 4 -3.2 6.7 -4.8 10.7 -16.2 19.2 -45.3 33.9 -34.1 17.3 -95.5 32.1 -141.9 34.3 -7 0.3 -13 1 -13.3 1.5 -0.7 1.1 -5.1 1 -5.9 -0.2z"/>
                </g>
                </svg>
            </g>
        </mask>
    </defs>
    <g id="kotlin-logo" mask="url(#Mask)">
        <svg version="1.1" id="Layer_1" xmlns="http://www.w3.org/2000/svg" xmlns:xlink="http://www.w3.org/1999/xlink"
            viewBox="0 0 500 500" style="enable-background:new 0 0 500 500;" xml:space="preserve">

            <style type="text/css">
                    .st0{fill:url(#SVGID_1_);}
            </style>

            <g id="Logotypes">
                    <g>
                        <linearGradient id="SVGID_1_" gradientUnits="userSpaceOnUse" x1="500.0035" y1="579.1058" x2="-9.653803e-02" y2="1079.2058" gradientTransform="matrix(0.9998 0 0 0.9998 9.651873e-02 -578.99)">
                            <stop offset="3.435144e-03" style="stop-color:#E44857"/>
                            <stop offset="0.4689" style="stop-color:#C711E1"/>
                            <stop offset="1" style="stop-color:#7F52FF"/>
                        </linearGradient>
                        <polygon class="st0" points="500,500 0,500 0,0 500,0 250,250"/>
                    </g>
            </g>
        </svg>
    </g>
</svg>